<svg width="16" height="20" viewBox="0 0 16 20" fill="none" xmlns="http://www.w3.org/2000/svg">
<path d="M7 18.5C7 19.0523 7.44772 19.5 8 19.5C8.55228 19.5 9 19.0523 9 18.5H7ZM8.70711 0.792894C8.31658 0.40237 7.68342 0.40237 7.29289 0.792894L0.928933 7.15686C0.538408 7.54738 0.538408 8.18054 0.928933 8.57107C1.31946 8.96159 1.95262 8.96159 2.34315 8.57107L8 2.91421L13.6569 8.57107C14.0474 8.96159 14.6805 8.96159 15.0711 8.57107C15.4616 8.18054 15.4616 7.54738 15.0711 7.15686L8.70711 0.792894ZM8 18.5H9L9 1.5H8H7L7 18.5H8Z" fill="#2D2C2C"/>
</svg>
