<svg width="125" height="20" viewBox="0 0 125 20" fill="none" xmlns="http://www.w3.org/2000/svg">
<path d="M1 10L3 12L5 10" stroke="white" stroke-linecap="round"/>
<path d="M12 5V10L15 13" stroke="white" stroke-linecap="round"/>
<path d="M12 19C16.9706 19 21 14.9706 21 10C21 5.02944 16.9706 1 12 1C7.02944 1 3 5.02944 3 10C3 9.96296 3 11 3 11" stroke="white" stroke-linecap="round"/>
<path d="M44.352 16.16C43.552 16.16 42.8107 16.016 42.128 15.728C41.4453 15.4293 40.848 15.0187 40.336 14.496C39.8347 13.9733 39.4453 13.3653 39.168 12.672C38.8907 11.9787 38.752 11.2373 38.752 10.448C38.752 9.648 38.8907 8.90133 39.168 8.208C39.4453 7.51467 39.8347 6.912 40.336 6.4C40.848 5.87733 41.44 5.472 42.112 5.184C42.7947 4.88533 43.536 4.736 44.336 4.736C45.2107 4.736 45.9787 4.88533 46.64 5.184C47.3013 5.48267 47.888 5.888 48.4 6.4L47.36 7.44C47.008 7.04533 46.576 6.736 46.064 6.512C45.5627 6.288 44.9867 6.176 44.336 6.176C43.7493 6.176 43.2107 6.28267 42.72 6.496C42.2293 6.69867 41.8027 6.992 41.44 7.376C41.0773 7.76 40.7947 8.21333 40.592 8.736C40.4 9.25867 40.304 9.82933 40.304 10.448C40.304 11.0667 40.4 11.6373 40.592 12.16C40.7947 12.6827 41.0773 13.136 41.44 13.52C41.8027 13.904 42.2293 14.2027 42.72 14.416C43.2107 14.6187 43.7493 14.72 44.336 14.72C45.0293 14.72 45.632 14.608 46.144 14.384C46.656 14.1493 47.088 13.8347 47.44 13.44L48.48 14.464C47.968 14.9973 47.3653 15.4133 46.672 15.712C45.9893 16.0107 45.216 16.16 44.352 16.16ZM55.4476 16V11.568C55.4476 10.992 55.2663 10.5173 54.9036 10.144C54.541 9.77067 54.0716 9.584 53.4956 9.584C53.1116 9.584 52.7703 9.66933 52.4716 9.84C52.173 10.0107 51.9383 10.2453 51.7676 10.544C51.597 10.8427 51.5116 11.184 51.5116 11.568L50.9196 11.232C50.9196 10.656 51.0476 10.144 51.3036 9.696C51.5596 9.248 51.917 8.896 52.3756 8.64C52.8343 8.37333 53.3516 8.24 53.9276 8.24C54.5036 8.24 55.0103 8.368 55.4476 8.624C55.8956 8.88 56.2476 9.23733 56.5036 9.696C56.7596 10.1547 56.8876 10.6827 56.8876 11.28V16H55.4476ZM50.0716 16V4.576H51.5116V16H50.0716ZM62.0693 16.16C61.3759 16.16 60.7466 15.9893 60.1813 15.648C59.6159 15.296 59.1679 14.8213 58.8372 14.224C58.5173 13.6267 58.3573 12.9547 58.3573 12.208C58.3573 11.4613 58.5173 10.7893 58.8372 10.192C59.1679 9.59467 59.6106 9.12 60.1653 8.768C60.7306 8.416 61.3653 8.24 62.0693 8.24C62.6453 8.24 63.1573 8.36267 63.6053 8.608C64.0639 8.84267 64.4319 9.17333 64.7093 9.6C64.9866 10.016 65.1413 10.5013 65.1733 11.056V13.344C65.1413 13.888 64.9866 14.3733 64.7093 14.8C64.4426 15.2267 64.0799 15.5627 63.6213 15.808C63.1733 16.0427 62.6559 16.16 62.0693 16.16ZM62.3093 14.8C63.0239 14.8 63.5999 14.56 64.0373 14.08C64.4746 13.5893 64.6933 12.9653 64.6933 12.208C64.6933 11.6853 64.5919 11.232 64.3893 10.848C64.1973 10.4533 63.9199 10.1493 63.5573 9.936C63.1946 9.712 62.7733 9.6 62.2933 9.6C61.8133 9.6 61.3866 9.712 61.0133 9.936C60.6506 10.16 60.3626 10.4693 60.1493 10.864C59.9466 11.248 59.8453 11.6907 59.8453 12.192C59.8453 12.704 59.9466 13.1573 60.1493 13.552C60.3626 13.936 60.6559 14.24 61.0293 14.464C61.4026 14.688 61.8293 14.8 62.3093 14.8ZM64.5973 16V13.952L64.8693 12.096L64.5973 10.256V8.4H66.0533V16H64.5973ZM69.2865 16V5.216H70.7265V16H69.2865ZM67.4145 9.712V8.4H72.5985V9.712H67.4145ZM82.7133 16V11.568C82.7133 10.992 82.5319 10.5173 82.1693 10.144C81.8066 9.77067 81.3373 9.584 80.7613 9.584C80.3773 9.584 80.0359 9.66933 79.7373 9.84C79.4386 10.0107 79.2039 10.2453 79.0333 10.544C78.8626 10.8427 78.7773 11.184 78.7773 11.568L78.1853 11.232C78.1853 10.656 78.3133 10.144 78.5693 9.696C78.8253 9.248 79.1826 8.896 79.6413 8.64C80.0999 8.37333 80.6173 8.24 81.1933 8.24C81.7693 8.24 82.2759 8.368 82.7133 8.624C83.1613 8.88 83.5133 9.23733 83.7693 9.696C84.0253 10.1547 84.1533 10.6827 84.1533 11.28V16H82.7133ZM77.3372 16V4.576H78.7773V16H77.3372ZM86.1189 16V8.4H87.5589V16H86.1189ZM86.8389 6.88C86.5722 6.88 86.3535 6.79467 86.1829 6.624C86.0122 6.44267 85.9269 6.21867 85.9269 5.952C85.9269 5.696 86.0122 5.48267 86.1829 5.312C86.3535 5.13067 86.5722 5.04 86.8389 5.04C87.1055 5.04 87.3242 5.13067 87.4949 5.312C87.6655 5.48267 87.7509 5.696 87.7509 5.952C87.7509 6.21867 87.6655 6.44267 87.4949 6.624C87.3242 6.79467 87.1055 6.88 86.8389 6.88ZM92.097 16.16C91.6703 16.16 91.265 16.1067 90.881 16C90.5077 15.8827 90.161 15.7227 89.841 15.52C89.521 15.3067 89.2437 15.056 89.009 14.768L89.937 13.84C90.2143 14.1813 90.5343 14.4373 90.897 14.608C91.2597 14.768 91.665 14.848 92.113 14.848C92.561 14.848 92.9077 14.7733 93.153 14.624C93.3983 14.464 93.521 14.2453 93.521 13.968C93.521 13.6907 93.4197 13.4773 93.217 13.328C93.025 13.168 92.7743 13.04 92.465 12.944C92.1557 12.8373 91.825 12.736 91.473 12.64C91.1317 12.5333 90.8063 12.4 90.497 12.24C90.1877 12.08 89.9317 11.8613 89.729 11.584C89.537 11.3067 89.441 10.9387 89.441 10.48C89.441 10.0213 89.553 9.62667 89.777 9.296C90.001 8.95467 90.3103 8.69333 90.705 8.512C91.1103 8.33067 91.5957 8.24 92.161 8.24C92.7583 8.24 93.2863 8.34667 93.745 8.56C94.2143 8.76267 94.5983 9.072 94.897 9.488L93.969 10.416C93.7557 10.1387 93.489 9.92533 93.169 9.776C92.8597 9.62667 92.5077 9.552 92.113 9.552C91.697 9.552 91.377 9.62667 91.153 9.776C90.9397 9.91467 90.833 10.112 90.833 10.368C90.833 10.624 90.929 10.8213 91.121 10.96C91.313 11.0987 91.5637 11.216 91.873 11.312C92.193 11.408 92.5237 11.5093 92.865 11.616C93.2063 11.712 93.5317 11.8453 93.841 12.016C94.1503 12.1867 94.401 12.416 94.593 12.704C94.7957 12.992 94.897 13.3707 94.897 13.84C94.897 14.5547 94.641 15.12 94.129 15.536C93.6277 15.952 92.9503 16.16 92.097 16.16ZM97.6771 16V5.216H99.1171V16H97.6771ZM95.8051 9.712V8.4H100.989V9.712H95.8051ZM105.637 16.16C104.891 16.16 104.219 15.984 103.621 15.632C103.024 15.28 102.549 14.8053 102.197 14.208C101.845 13.6 101.669 12.9227 101.669 12.176C101.669 11.44 101.845 10.7787 102.197 10.192C102.549 9.59467 103.024 9.12 103.621 8.768C104.219 8.416 104.891 8.24 105.637 8.24C106.373 8.24 107.04 8.416 107.637 8.768C108.245 9.10933 108.725 9.57867 109.077 10.176C109.429 10.7733 109.605 11.44 109.605 12.176C109.605 12.9227 109.429 13.6 109.077 14.208C108.725 14.8053 108.245 15.28 107.637 15.632C107.04 15.984 106.373 16.16 105.637 16.16ZM105.637 14.768C106.117 14.768 106.544 14.656 106.917 14.432C107.291 14.208 107.584 13.904 107.797 13.52C108.011 13.1253 108.117 12.6773 108.117 12.176C108.117 11.6853 108.005 11.248 107.781 10.864C107.568 10.48 107.275 10.1813 106.901 9.968C106.539 9.744 106.117 9.632 105.637 9.632C105.157 9.632 104.731 9.744 104.357 9.968C103.984 10.1813 103.691 10.48 103.477 10.864C103.264 11.248 103.157 11.6853 103.157 12.176C103.157 12.6773 103.264 13.1253 103.477 13.52C103.691 13.904 103.984 14.208 104.357 14.432C104.731 14.656 105.157 14.768 105.637 14.768ZM111.228 16V8.4H112.668V16H111.228ZM112.668 11.664L112.124 11.424C112.124 10.4533 112.348 9.68 112.796 9.104C113.244 8.528 113.889 8.24 114.732 8.24C115.116 8.24 115.463 8.30933 115.772 8.448C116.081 8.576 116.369 8.79467 116.636 9.104L115.692 10.08C115.532 9.90933 115.356 9.78667 115.164 9.712C114.972 9.63733 114.748 9.6 114.492 9.6C113.959 9.6 113.521 9.77067 113.18 10.112C112.839 10.4533 112.668 10.9707 112.668 11.664ZM120.005 16.064L116.709 8.4H118.309L120.757 14.4H120.245L122.821 8.4H124.421L120.869 16.064H120.005ZM117.829 19.184L120.069 14.592L120.869 16.064L119.429 19.184H117.829Z" fill="white"/>
</svg>
