<svg width="35" height="35" viewBox="0 0 35 35" fill="none" xmlns="http://www.w3.org/2000/svg">
<path d="M24.5406 20.6983C25.2419 18.871 25.1399 15.7636 22.5451 13.02C21.8509 12.2869 21.0653 11.7086 20.2084 11.302L20.2069 11.3046C19.64 11.0035 19.045 10.7859 18.4326 10.6608C16.1067 10.1828 13.5869 11.035 11.6912 12.9401C9.77093 14.8717 8.94453 17.4079 9.48186 19.7259C9.91342 21.5874 11.1724 23.1847 13.0283 24.2249C13.64 24.5681 14.293 24.8355 14.965 25.0237C16.2008 25.3698 17.4995 25.4475 18.7162 25.2322C21.3781 24.759 23.6647 22.9802 24.5406 20.6983ZM18.5503 24.3634C15.3351 24.9341 11.1777 23.0911 10.3535 19.5356C9.88401 17.5113 10.6242 15.2773 12.332 13.5601C14.0148 11.8685 16.2298 11.1074 18.2576 11.5232C18.3826 11.5491 18.5064 11.5792 18.6298 11.6137C19.5801 11.8799 20.4821 12.4072 21.2586 13.1534C21.9874 13.8543 22.4554 14.6275 22.6119 15.3888C22.9241 16.9057 22.0396 18.3819 21.1075 19.2574C18.7768 21.4476 15.6416 21.2245 13.9558 19.7427C13.4303 19.2798 13.0985 18.7053 13.0225 18.1233C12.9223 17.3596 13.2827 16.4928 13.963 15.8618C14.8093 15.0771 16.2839 14.3718 17.5186 14.678C18.2229 14.8532 18.757 15.139 19.088 15.5178C18.9327 15.5336 18.7666 15.5578 18.5996 15.5933C17.4871 15.8286 16.8134 16.4334 16.6515 17.3428C16.4941 18.2223 16.804 18.9109 17.4792 19.1845C18.2627 19.4998 19.2975 19.1384 19.8322 18.3562C20.2724 17.7127 20.603 16.6702 20.2112 15.6749C19.9654 15.0499 19.3408 14.22 17.7302 13.8229C16.1608 13.4335 14.3979 14.2429 13.3469 15.2168C12.4511 16.0484 11.9973 17.1743 12.1352 18.2286C12.2385 19.0221 12.6746 19.7932 13.3639 20.3978C15.3527 22.1455 19.025 22.4369 21.7271 19.8981C22.8484 18.8442 23.5048 17.4921 23.5623 16.1959C24.195 17.8117 24.103 19.3387 23.7032 20.3793C22.9352 22.3811 20.9131 23.9448 18.5503 24.3634ZM19.4768 16.3745C19.5479 16.9384 19.334 17.5031 19.0894 17.8599C18.7606 18.3406 18.1656 18.5125 17.8134 18.3697C17.4779 18.2339 17.4753 17.8231 17.5326 17.5029C17.6958 16.5885 18.7942 16.4009 19.4768 16.3745ZM19.7303 6.57449L20.7921 4.10647C20.8881 3.88232 21.1504 3.78004 21.3779 3.87646C21.6059 3.9738 21.7119 4.23325 21.6162 4.45599L20.5542 6.92471C20.4584 7.14816 20.1959 7.25115 19.9687 7.15401C19.7403 7.05809 19.6342 6.79864 19.7303 6.57449ZM6.52915 15.5096L3.86597 14.9074C3.62449 14.8527 3.4717 14.6167 3.5251 14.3791C3.57851 14.1415 3.81732 13.993 4.05881 14.0478L6.72178 14.6506C6.96327 14.7053 7.11606 14.9413 7.06266 15.179C7.00873 15.4157 6.77063 15.5643 6.52915 15.5096ZM30.4742 21.9715C30.391 22.1992 30.1353 22.317 29.903 22.2322L27.3353 21.303C27.1028 21.2189 26.9813 20.965 27.0654 20.7367C27.1485 20.5089 27.4041 20.3919 27.6365 20.476L30.204 21.4059C30.4367 21.4893 30.5575 21.743 30.4742 21.9715ZM13.8117 7.22492L12.2683 5.12424C12.1227 4.92599 12.1673 4.65089 12.3664 4.50887C12.5663 4.36704 12.8457 4.41335 12.9915 4.6109L14.5342 6.71138C14.6797 6.90964 14.6359 7.18493 14.4361 7.32676C14.2371 7.46808 13.9568 7.42227 13.8117 7.22492ZM24.4719 10.6535C24.3432 10.4448 24.4089 10.1741 24.6196 10.049L27.0072 8.63021C27.2179 8.5051 27.4928 8.57297 27.6215 8.78172C27.7502 8.99047 27.6845 9.26115 27.4738 9.38626L25.0864 10.8044C24.8755 10.9302 24.6006 10.8623 24.4719 10.6535ZM10.6192 10.747C10.4656 10.936 10.1844 10.9653 9.99133 10.8123L7.63544 8.94738C7.44237 8.7944 7.41027 8.51685 7.56377 8.32781C7.71656 8.13857 7.99872 8.10881 8.19179 8.26179L10.5475 10.1274C10.7413 10.2806 10.7734 10.5582 10.6192 10.747ZM26.9586 15.9398C26.928 15.6984 27.1022 15.4794 27.3475 15.4515L30.3167 15.1131C30.562 15.0852 30.7856 15.2589 30.8155 15.5001C30.846 15.7422 30.6719 15.9604 30.4273 15.9886L27.4572 16.3275C27.2127 16.3556 26.989 16.1819 26.9586 15.9398ZM14.6114 30.5392C14.5765 30.7797 14.3506 30.9454 14.1061 30.9096C13.8619 30.8732 13.6918 30.6491 13.726 30.4083L14.1075 27.7483C14.1415 27.5082 14.3674 27.3425 14.6125 27.3785C14.8568 27.4149 15.0271 27.6384 14.9927 27.8798L14.6114 30.5392ZM22.2185 30.8858C22.0186 31.0277 21.739 30.9821 21.5934 30.7838L20.0507 28.6833C19.9052 28.4851 19.9497 28.21 20.1488 28.068C20.3485 27.9268 20.6281 27.9724 20.7739 28.17L22.3166 30.2705C22.4614 30.4685 22.4176 30.7438 22.2185 30.8858ZM10.1123 24.741C10.2417 24.9499 10.1752 25.2204 9.9646 25.3455L7.57787 26.7638C7.36704 26.8896 7.09212 26.8217 6.9634 26.613C6.83467 26.4042 6.90043 26.1336 7.11106 26.0085L9.498 24.5895C9.70863 24.4643 9.98355 24.5322 10.1123 24.741ZM27.0211 27.0669C26.8683 27.2561 26.5864 27.2852 26.3933 27.1322L24.0374 25.2673C23.8443 25.1143 23.8124 24.8361 23.9659 24.647C24.1194 24.458 24.4007 24.4287 24.5938 24.5817L26.9495 26.4473C27.1425 26.6003 27.1746 26.8779 27.0211 27.0669ZM7.62648 19.4542C7.65691 19.6963 7.48284 19.9146 7.23755 19.9425L4.26819 20.2816C4.0229 20.3095 3.79928 20.1358 3.76884 19.8937C3.73893 19.6526 3.9132 19.4336 4.15777 19.4055L7.12766 19.0672C7.37223 19.0391 7.59585 19.2128 7.62648 19.4542Z" fill="black"/>
</svg>
