<svg width="34" height="34" viewBox="0 0 34 34" fill="none" xmlns="http://www.w3.org/2000/svg">
<circle cx="17" cy="17" r="17" fill="#F9F9F9"/>
<path d="M16 25.5C16 26.0523 16.4477 26.5 17 26.5C17.5523 26.5 18 26.0523 18 25.5H16ZM17.7071 7.79289C17.3166 7.40237 16.6834 7.40237 16.2929 7.79289L9.92893 14.1569C9.53841 14.5474 9.53841 15.1805 9.92893 15.5711C10.3195 15.9616 10.9526 15.9616 11.3431 15.5711L17 9.91421L22.6569 15.5711C23.0474 15.9616 23.6805 15.9616 24.0711 15.5711C24.4616 15.1805 24.4616 14.5474 24.0711 14.1569L17.7071 7.79289ZM17 25.5H18L18 8.5H17H16L16 25.5H17Z" fill="#1F1F1F"/>
</svg>
