<svg width="37" height="29" viewBox="0 0 37 29" fill="none" xmlns="http://www.w3.org/2000/svg">
<rect width="37" height="29" fill="black"/>
<rect width="1512" height="2803" transform="translate(-255 -1229)" fill="#EEEEEE"/>
<rect x="-81" y="-60" width="1148" height="498" rx="34" stroke="#999999" stroke-opacity="0.88" stroke-width="2"/>
<path d="M36 11.1642V17.667C36.0065 18.9539 35.5848 20.2179 34.7356 21.459C33.8897 22.7001 32.6128 23.8139 30.9046 24.8002C29.1997 25.7834 27.2727 26.5215 25.1204 27.0114C22.9712 27.5013 20.7797 27.743 18.5554 27.7398C16.3279 27.7365 14.1364 27.485 11.9808 26.9886C9.82512 26.4888 7.88831 25.7442 6.1736 24.7545C4.45562 23.7649 3.16547 22.6446 2.30648 21.4002C1.44422 20.1558 1.00983 18.8886 1.00003 17.605V11.0728C1.00983 12.1636 1.32342 13.2447 1.94725 14.3095C2.0583 14.4956 2.1791 14.6818 2.30648 14.868C3.16547 16.1124 4.45562 17.2327 6.1736 18.2223C7.88831 19.2119 9.82512 19.9566 11.9808 20.4563C14.1364 20.9528 16.3279 21.2043 18.5554 21.2075C20.7797 21.2108 22.9712 20.9691 25.1204 20.4792C27.2727 19.9893 29.1997 19.2511 30.9046 18.268C32.6128 17.2816 33.8897 16.1679 34.7356 14.9268C34.85 14.7635 34.9545 14.5969 35.0525 14.4303C35.6828 13.359 36 12.2714 36 11.1642Z" stroke="#1B263B" stroke-linecap="round" stroke-linejoin="round"/>
<path d="M34.6968 7.33956C33.8345 6.09517 32.5443 4.97816 30.8296 3.98526C29.1116 2.99563 27.1748 2.25096 25.0191 1.75451C22.8635 1.25479 20.672 1.00656 18.4445 1.00003C16.2203 0.996766 14.032 1.24173 11.8796 1.73164C9.72721 2.22156 7.8002 2.95643 6.09528 3.9428C4.39037 4.9259 3.11332 6.03965 2.26413 7.28077C1.41494 8.52516 0.993573 9.78588 1.00011 11.0727C1.0099 12.1636 1.3235 13.2447 1.94733 14.3095C2.05838 14.4956 2.17917 14.6818 2.30655 14.868C3.16554 16.1124 4.45569 17.2326 6.17367 18.2223C7.88838 19.2119 9.82519 19.9566 11.9808 20.4563C14.1365 20.9527 16.328 21.2042 18.5555 21.2075C20.7797 21.2108 22.9713 20.9691 25.1204 20.4792C27.2728 19.9892 29.1998 19.2511 30.9047 18.268C32.6129 17.2816 33.8901 16.1679 34.736 14.9268C34.8503 14.7634 34.9548 14.5969 35.0528 14.4303C35.6832 13.359 36 12.2714 36 11.1642V11.1348C35.9934 9.85121 35.559 8.58395 34.6968 7.33956ZM22.3475 13.3231C22.0176 13.5158 21.6061 13.6072 21.1096 13.6072H19.3394L13.5061 13.5942C13.0096 13.5942 12.5916 13.4929 12.2519 13.297C11.909 13.101 11.7391 12.8593 11.7391 12.5751C11.7555 12.3008 11.9351 12.0656 12.2747 11.8697C12.6144 11.6737 13.0097 11.5757 13.4637 11.5757L19.3394 11.5888L19.3198 8.19528C19.3198 7.94706 19.4471 7.73803 19.7052 7.56492C19.7411 7.53879 19.7836 7.51593 19.826 7.49307C20.1657 7.3069 20.5707 7.21218 21.0443 7.19912C21.5408 7.19912 21.9588 7.29384 22.2985 7.48C22.4977 7.58779 22.6381 7.70863 22.7198 7.85234C22.7818 7.95359 22.8145 8.06464 22.8145 8.18549L22.8374 12.6111C22.8374 12.8985 22.6741 13.1337 22.3475 13.3231Z" stroke="#1B263B" stroke-linecap="round" stroke-linejoin="round"/>
</svg>
