<svg width="35" height="35" viewBox="0 0 35 35" fill="none" xmlns="http://www.w3.org/2000/svg">
<path d="M1.66667 4.89001V22.4433L6.37337 25.1633V7.61001L1.66667 4.89001Z" stroke="#1B263B" stroke-linecap="round" stroke-linejoin="round"/>
<path d="M13.04 4.27665L6.37337 7.60998L1.66667 4.88998L8.33333 1.55664L13.04 4.27665Z" stroke="#1B263B" stroke-linecap="round" stroke-linejoin="round"/>
<path d="M13.04 4.27661V6.50661L8.72673 8.96661V23.9866L6.37337 25.1633V7.60994L13.04 4.27661Z" stroke="#1B263B" stroke-linecap="round" stroke-linejoin="round"/>
<path d="M25.8101 4.69336L24.28 10.7634L17.6134 14.0967L19.1434 8.02669L25.8101 4.69336Z" stroke="#1B263B" stroke-linecap="round" stroke-linejoin="round"/>
<path d="M25.8101 4.69331L19.1434 8.02665L17.17 4.61998L16.9667 4.26998L23.6334 0.936646L25.8101 4.69331Z" stroke="#1B263B" stroke-linecap="round" stroke-linejoin="round"/>
<path d="M33.0467 21.7667L28.75 30.9001L22.0833 34.2334L24.74 28.5834L26.38 25.1001L33.0467 21.7667Z" stroke="#1B263B" stroke-linecap="round" stroke-linejoin="round"/>
<path d="M33.0467 15.8234V21.7667L26.38 25.1V19.1567L33.0467 15.8234Z" stroke="#1B263B" stroke-linecap="round" stroke-linejoin="round"/>
<path d="M33.0467 15.8233L26.38 19.1566L17.6134 14.0966L24.28 10.7633L33.0467 15.8233Z" stroke="#1B263B" stroke-linecap="round" stroke-linejoin="round"/>
<path d="M26.38 19.1567V25.1L24.74 28.5834L22.0833 34.2334L8.72673 26.52V8.96669L13.04 6.50669L16.9667 4.27002L17.17 4.62002L19.1434 8.02669L17.6134 14.0967L26.38 19.1567Z" stroke="#1B263B" stroke-linecap="round" stroke-linejoin="round"/>
</svg>
