<svg width="38" height="38" viewBox="0 0 38 38" fill="none" xmlns="http://www.w3.org/2000/svg">
<mask id="mask0_99_192" style="mask-type:luminance" maskUnits="userSpaceOnUse" x="0" y="0" width="38" height="38">
<path d="M0 0H38V38H0V0Z" fill="white"/>
</mask>
<g mask="url(#mask0_99_192)">
<path d="M29.7613 20.7872C30.0086 18.1549 28.7394 14.1501 24.3488 11.5267C23.1745 10.826 21.9375 10.36 20.6702 10.1432L20.6692 10.1472C19.819 9.96214 18.9627 9.89584 18.1175 9.9562C14.9064 10.1818 11.9286 12.2085 10.1503 15.3771C8.3499 18.5893 8.19843 22.1894 9.74743 25.0088C10.9915 27.2729 13.2191 28.8919 16.0222 29.5688C16.9461 29.7924 17.8963 29.9022 18.8425 29.9022C20.5824 29.9022 22.3061 29.5302 23.8157 28.8068C27.1177 27.2215 29.4523 24.0746 29.7613 20.7872ZM23.2815 27.737C19.2929 29.6509 13.1918 28.7682 10.8158 24.4437C9.46267 21.9816 9.61212 18.806 11.2136 15.9501C12.7919 13.1367 15.4052 11.3396 18.2043 11.1417C18.377 11.1298 18.5497 11.1239 18.7234 11.1239C20.0613 11.1239 21.4316 11.4811 22.718 12.1689C23.9257 12.8151 24.8194 13.6503 25.3021 14.5835C26.2644 16.4429 25.6494 18.6853 24.7527 20.1638C22.511 23.8618 18.3366 24.7139 15.5941 23.4007C14.7388 22.99 14.0955 22.3636 13.7835 21.6343C13.3735 20.6773 13.527 19.4186 14.1844 18.3498C15.0023 17.0208 16.6695 15.5661 18.3932 15.5147C19.3767 15.486 20.1784 15.6631 20.749 16.0352C20.5521 16.1124 20.3441 16.2044 20.1391 16.3113C18.7728 17.0228 18.1145 18.055 18.2356 19.2969C18.3518 20.4982 19.0081 21.281 19.9896 21.3908C21.1276 21.5155 22.3464 20.6684 22.7584 19.4562C23.0977 18.4587 23.1482 16.9822 22.2727 15.8304C21.7234 15.107 20.6046 14.255 18.3568 14.3252C16.1656 14.3905 14.1602 16.0857 13.1443 17.7353C12.2789 19.1435 12.0982 20.7733 12.6637 22.0944C13.0888 23.089 13.94 23.9331 15.0609 24.4684C18.2962 26.0171 23.1967 25.0582 25.7959 20.7714C26.8743 18.9921 27.2368 16.9941 26.8379 15.2871C28.2547 17.1584 28.6929 19.1781 28.5515 20.6773C28.2809 23.561 26.2129 26.3318 23.2815 27.737ZM21.5699 17.008C21.8688 17.7155 21.7961 18.528 21.6073 19.0811C21.3538 19.8263 20.6399 20.2667 20.128 20.2093C19.6402 20.1548 19.4868 19.6215 19.4443 19.1841C19.3232 17.9352 20.6884 17.291 21.5699 17.008ZM18.3174 4.16813L18.8011 0.570991C18.8445 0.244429 19.1495 0.0158346 19.4817 0.0583867C19.8149 0.101928 20.0482 0.400783 20.0048 0.725366L19.5211 4.32349C19.4777 4.64906 19.1727 4.87865 18.8405 4.83511C18.5073 4.79354 18.274 4.49469 18.3174 4.16813ZM4.35117 20.6002L0.654372 20.7872C0.319125 20.804 0.0333581 20.5527 0.0161916 20.2241C-0.000974545 19.8956 0.256519 19.6155 0.591766 19.5987L4.28857 19.4127C4.62381 19.3958 4.90958 19.6472 4.92675 19.9757C4.9429 20.3033 4.68642 20.5833 4.35117 20.6002ZM37.9728 20.2815C37.9475 20.6081 37.6567 20.8545 37.3225 20.8288L33.6307 20.5556C33.2965 20.5309 33.0451 20.2449 33.0713 19.9173C33.0966 19.5908 33.3874 19.3454 33.7216 19.3701L37.4134 19.6442C37.7476 19.668 37.998 19.954 37.9728 20.2815ZM10.8289 7.17052L8.04595 5.00037C7.78341 4.79552 7.741 4.42146 7.94902 4.16417C8.15804 3.90688 8.53974 3.86531 8.80228 4.06917L11.5842 6.23932C11.8468 6.44417 11.8902 6.81823 11.6812 7.07552C11.4731 7.33182 11.0904 7.37438 10.8289 7.17052ZM25.9988 7.74646C25.7544 7.52182 25.7413 7.14578 25.9705 6.9063L28.5687 4.19089C28.7979 3.95141 29.1816 3.93953 29.426 4.16417C29.6704 4.3888 29.6835 4.76485 29.4543 5.00432L26.8561 7.71875C26.6269 7.95922 26.2432 7.9711 25.9988 7.74646ZM7.94902 12.9151C7.81774 13.2169 7.46129 13.3574 7.15331 13.2288L3.39592 11.6613C3.08794 11.5326 2.94455 11.1833 3.07582 10.8815C3.20608 10.5796 3.56355 10.4381 3.87153 10.5668L7.62892 12.1353C7.93791 12.2639 8.0813 12.6132 7.94902 12.9151ZM31.178 13.7166C31.0497 13.4138 31.1972 13.0655 31.5072 12.9398L35.2595 11.4178C35.5695 11.2921 35.9249 11.4366 36.0522 11.7394C36.1804 12.0432 36.033 12.3906 35.724 12.5163L31.9706 14.0392C31.6617 14.1649 31.3062 14.0204 31.178 13.7166ZM20.3976 37.2054C20.44 37.5309 20.2057 37.8288 19.8735 37.8714C19.5413 37.9129 19.2373 37.6833 19.1939 37.3578L18.7193 33.7587C18.6759 33.4341 18.9102 33.1362 19.2434 33.0937C19.5756 33.0521 19.8796 33.2807 19.923 33.6072L20.3976 37.2054ZM30.455 34.8848C30.2459 35.1421 29.8643 35.1846 29.6017 34.9798L26.8198 32.8096C26.5572 32.6048 26.5148 32.2307 26.7228 31.9734C26.9319 31.7171 27.3135 31.6746 27.5761 31.8784L30.358 34.0486C30.6196 34.2534 30.663 34.6275 30.455 34.8848ZM12.4042 31.3025C12.6495 31.5271 12.6617 31.9032 12.4324 32.1427L9.83528 34.8571C9.60606 35.0976 9.22235 35.1094 8.97798 34.8848C8.73361 34.6602 8.72049 34.2841 8.94971 34.0446L11.5469 31.3292C11.7761 31.0897 12.1598 31.0779 12.4042 31.3025ZM35.3282 28.1675C35.1979 28.4693 34.8404 28.6098 34.5325 28.4812L30.7751 26.9137C30.4671 26.7851 30.3237 26.4347 30.455 26.1329C30.5862 25.8311 30.9427 25.6906 31.2507 25.8192L35.0081 27.3877C35.3161 27.5164 35.4594 27.8657 35.3282 28.1675ZM7.22601 25.3314C7.35426 25.6352 7.20683 25.9825 6.89683 26.1082L3.14449 27.6311C2.83449 27.7568 2.47904 27.6123 2.3508 27.3085C2.22357 27.0057 2.371 26.6574 2.67999 26.5317L6.43334 25.0097C6.74233 24.8841 7.09777 25.0285 7.22601 25.3314Z" fill="#7CBBFF"/>
</g>
</svg>
