<svg width="35" height="35" viewBox="0 0 35 35" fill="none" xmlns="http://www.w3.org/2000/svg">
<path d="M25.5401 24.1285C25.5401 24.7954 25.3519 25.2379 24.9755 25.4526C24.5991 25.6672 24.1204 25.6077 23.5393 25.2709C23.252 25.1058 22.9878 24.9011 22.75 24.6601C22.5057 24.4091 22.2911 24.1219 22.0996 23.7917L18.6458 17.8351L16.1463 13.5261V32.8422C16.1463 33.5093 15.9514 33.955 15.5585 34.1795C15.1623 34.4041 14.677 34.3479 14.0958 34.0111C13.5114 33.6744 13.026 33.1692 12.6331 32.4888C12.2402 31.812 12.042 31.1384 12.042 30.4714V11.1554L11.7812 11.3039L6.08875 14.5497C5.71233 14.7643 5.23352 14.7016 4.65239 14.3681C4.07126 14.0313 3.59253 13.5393 3.21611 12.8888C2.8397 12.2417 2.6515 11.5813 2.6515 10.9143C2.6515 10.2473 2.8397 9.80488 3.21611 9.59026L12.6562 4.20818L12.7916 4.14215C13.0425 4.03649 13.3199 4.02992 13.6237 4.11907C13.7756 4.16529 13.9307 4.2346 14.0958 4.33035C14.6406 4.64734 15.1227 5.15913 15.5322 5.86573L17.1732 8.69548L18.6458 11.2379L22.75 18.3139L24.9755 22.154C25.3519 22.8044 25.5401 23.4615 25.5401 24.1285Z" stroke="#1B263B" stroke-linecap="round" stroke-linejoin="round"/>
<path d="M12.0421 11.1553V11.5746L6.08881 14.5496L11.7813 11.3038L12.0421 11.1553Z" stroke="#1B263B" stroke-linecap="round" stroke-linejoin="round"/>
<path d="M22.75 24.66V29.5402C22.75 30.2071 22.5552 30.6529 22.1623 30.8774L22.0402 30.9369L15.5585 34.1794C15.9514 33.9549 16.1463 33.5092 16.1463 32.842V13.526L18.6458 17.8349L22.0996 23.7916C22.2911 24.1218 22.5057 24.409 22.75 24.66Z" stroke="#1B263B" stroke-linecap="round" stroke-linejoin="round"/>
<path d="M32.1439 20.8266C32.1439 21.4935 31.9557 21.936 31.5793 22.1506L24.9755 25.4525C25.3519 25.2379 25.5401 24.7954 25.5401 24.1284C25.5401 23.4615 25.3519 22.8044 24.9755 22.1539L22.75 18.3138L18.6458 11.2379L17.1732 8.69543L15.5322 5.86568C15.1227 5.15907 14.6406 4.64728 14.0958 4.3303C13.9307 4.23454 13.7756 4.16524 13.6237 4.11901C13.3199 4.02986 13.0425 4.03646 12.7916 4.14212L19.26 0.906252C19.6727 0.671818 20.1515 0.711438 20.6996 1.02842C21.2444 1.3454 21.7265 1.8572 22.1359 2.56381L31.5793 18.852C31.9557 19.5025 32.1439 20.1596 32.1439 20.8266Z" stroke="#1B263B" stroke-linecap="round" stroke-linejoin="round"/>
</svg>
